<?xml version="1.0" encoding="utf-8"?>
<!-- Generator: Adobe Illustrator 25.2.0, SVG Export Plug-In . SVG Version: 6.00 Build 0)  -->
<svg version="1.1" id="Layer_1" xmlns="http://www.w3.org/2000/svg" xmlns:xlink="http://www.w3.org/1999/xlink" x="0px" y="0px"
	 viewBox="0 0 71.1 63.3" style="enable-background:new 0 0 71.1 63.3;" xml:space="preserve">
<style type="text/css">
	.st0{fill:#5F2265;}
	.st1{fill:#FFCC33;}
</style>
<g id="icon">
	<path class="st0" d="M40.2,55h-6.4c-2.2,0-4-1.8-4-4V19.1c0-2.2,1.8-4,4-4h6.4c2.2,0,4,1.8,4,4V51C44.2,53.2,42.4,55,40.2,55z"/>
	<path class="st1" d="M69.8,53.9L41,3.9c-1-2.2-3.1-3.7-5.4-3.9c-2.4,0.2-4.4,1.7-5.4,3.9l-28.9,50c-3,5.2-0.5,9.4,5.4,9.4h57.8
		C70.4,63.3,72.8,59,69.8,53.9z M39.1,52.6H32v-7.1h7.1V52.6z M39.1,38.4H32V17h7.1V38.4z"/>
</g>
</svg>
