<?xml version="1.0" encoding="utf-8"?>
<!-- Generator: Adobe Illustrator 25.2.0, SVG Export Plug-In . SVG Version: 6.00 Build 0)  -->
<svg version="1.1" id="Layer_1" xmlns="http://www.w3.org/2000/svg" xmlns:xlink="http://www.w3.org/1999/xlink" x="0px" y="0px"
	 viewBox="0 0 147.4 91.2" style="enable-background:new 0 0 147.4 91.2;" xml:space="preserve">
<style type="text/css">
	.st0{fill:none;stroke:#4A2E79;stroke-width:3;stroke-linecap:round;stroke-linejoin:round;stroke-miterlimit:10;}
</style>
<g>
	<path class="st0" d="M87.3,1.5h19.2c2.2,0,4,1.8,4,4v26"/>
	<path class="st0" d="M37.4,31.1V5.5c0-2.2,1.8-4,4-4h18.5"/>
	<path class="st0" d="M59.8,89.7H41.4c-2.2,0-4-1.8-4-4v-5.3"/>
	<path class="st0" d="M110.5,80.3v5.4c0,2.2-1.8,4-4,4H87.2"/>
	<ellipse class="st0" cx="20" cy="36.2" rx="11.6" ry="12.3"/>
	<path class="st0" d="M35.4,74.5H5.5c-2.2,0-4-1.8-4-4v-1.5c0-6.9,5.6-12.5,12.5-12.5h12.9c6.9,0,12.5,5.6,12.5,12.5v1.5
		C39.4,72.7,37.6,74.5,35.4,74.5z"/>
	<ellipse class="st0" cx="126.5" cy="36.2" rx="11.6" ry="12.3"/>
	<path class="st0" d="M141.9,74.5H112c-2.2,0-4-1.8-4-4v-1.5c0-6.9,5.6-12.5,12.5-12.5h12.9c6.9,0,12.5,5.6,12.5,12.5v1.5
		C145.9,72.7,144.1,74.5,141.9,74.5z"/>
	<ellipse class="st0" cx="72.7" cy="28.7" rx="14.2" ry="15.1"/>
	<path class="st0" d="M91.6,73.9H54.9c-2.7,0-4.9-2.2-4.9-4.9v-1.8c0-8.4,6.9-15.3,15.3-15.3h15.8c8.4,0,15.3,6.9,15.3,15.3V69
		C96.5,71.7,94.3,73.9,91.6,73.9z"/>
</g>
</svg>
