<svg id="Capa_1" data-name="Capa 1" xmlns="http://www.w3.org/2000/svg" viewBox="0 0 86.6 110.3">
  <defs>
    <style>
      .cls-1, .cls-2 {
        fill: none;
        stroke: #4a2e79;
        stroke-miterlimit: 10;
      }

      .cls-1 {
        stroke-width: 3px;
      }

      .cls-2 {
        stroke-width: 2px;
      }

      .cls-3 {
        fill: #da36a8;
      }
    </style>
  </defs>
  <g>
    <path class="cls-1" d="M13.6,28.8s-18,1.4-10.1,3.6,60.2,2,66.4.9.6-4.2-4.7-3.9"/>
    <path class="cls-1" d="M1.8,31.7S8.2,61.2,9.2,70.8s1.2,28,2,30.4,6.5,1.8,12.9,1.8h7.2"/>
    <path class="cls-1" d="M64.6,90.7s5-54.8,6.7-57.9"/>
    <path class="cls-1" d="M18.1,47.8s4.4,1.3,4.7,4.7,1,35.6,2.2,36.8a7.8,7.8,0,0,0,1.5,1.3"/>
    <path class="cls-1" d="M35.1,47.4a4.8,4.8,0,0,1,3,4.2c.2,3.2.5,39.1.5,39.1"/>
    <path class="cls-1" d="M58.8,47.3s-4.7,2.4-5.9,4.7-1.7,36.5-2.2,37.5a3.9,3.9,0,0,1-1.8,1.3"/>
    <path class="cls-2" d="M23,109.3H84.6l-4.9-6.6s-6.6.5-8.9-3.5-4.3-7.8-7.5-6.7-4.6.1-8.5,3.8-4.9,1.1-11.2,4.8-7.5,6.4-11.7,7.2S23,109.3,23,109.3Z"/>
    <path class="cls-2" d="M69.8,97.5s1.4-3.8,4.3-3.6,4.6,1.4,5.2,2.2,3.3,3.4.4,6.6"/>
    <path class="cls-2" d="M63.1,98.1A12.6,12.6,0,0,0,61,101c-.5,1.2-1.2,2.8-2.8,1.3s-3.3-3.9-1.8-7.4"/>
    <polyline class="cls-2" points="13.6 33.5 25.7 1.2 68.4 14.1 61.3 33.8"/>
    <g>
      <path class="cls-3" d="M27.1,18.7l.7-2.9,1.5.4-.4,1.5,4.3,1.1-.3,1.5ZM29,11.5l.3-1.5,4.4,1.2-.4,1.4Zm.3,4.7.3-1.5,1.5.4-.4,1.5Zm1.8-1.1.4-1.4,1.4.4-.3,1.4Zm1.8-1,.4-1.5,1.5.4-.4,1.4Z"/>
      <path class="cls-3" d="M34.3,20.6l2.3-8.7,5.8,1.5-2.3,8.8Zm4.8-.3,1.5-5.8-2.9-.8-1.5,5.9Z"/>
      <path class="cls-3" d="M41.6,22.5l.7-2.9,1.5.4-.4,1.5,4.4,1.1-.4,1.5Zm1.9-7.2.4-1.5L48.2,15l-.4,1.4Zm.3,4.7.4-1.4,1.4.3-.3,1.5Zm1.8-1.1.4-1.4,1.5.4-.4,1.4Zm1.9-1,.3-1.5,1.5.4-.4,1.5Z"/>
      <path class="cls-3" d="M48.9,24.4l2.2-8.7,5.8,1.5L54.7,26Zm4.7-.3,1.5-5.8-2.9-.7-1.5,5.8Z"/>
    </g>
  </g>
</svg>
