<?xml version="1.0" encoding="utf-8"?>
<!-- Generator: Adobe Illustrator 25.2.0, SVG Export Plug-In . SVG Version: 6.00 Build 0)  -->
<svg version="1.1" id="Layer_1" xmlns="http://www.w3.org/2000/svg" xmlns:xlink="http://www.w3.org/1999/xlink" x="0px" y="0px"
	 viewBox="0 0 25.7 25.7" style="enable-background:new 0 0 25.7 25.7;" xml:space="preserve">
<style type="text/css">
	.st0{fill-rule:evenodd;clip-rule:evenodd;fill:#5F2265;}
</style>
<path class="st0" d="M6.3,12.9c0-3.6,2.9-6.6,6.6-6.6c3.6,0,6.6,3,6.6,6.6c0,3.6-2.9,6.6-6.6,6.6C9.2,19.4,6.3,16.5,6.3,12.9
	L6.3,12.9z M19.7,0H6.1C2.7,0,0,2.7,0,6.1v13.6c0,3.3,2.7,6.1,6.1,6.1h13.6c3.4,0,6.1-2.7,6.1-6.1V6.1C25.7,2.7,23,0,19.7,0L19.7,0z
	 M21,3.4c-0.7,0-1.3,0.6-1.3,1.3c0,0.7,0.6,1.3,1.3,1.3c0.7,0,1.3-0.6,1.3-1.3C22.3,4,21.7,3.4,21,3.4L21,3.4z"/>
</svg>
