<?xml version="1.0" encoding="utf-8"?>
<!-- Generator: Adobe Illustrator 25.2.0, SVG Export Plug-In . SVG Version: 6.00 Build 0)  -->
<svg version="1.1" id="Layer_1" xmlns="http://www.w3.org/2000/svg" xmlns:xlink="http://www.w3.org/1999/xlink" x="0px" y="0px"
	 viewBox="0 0 26.3 21" style="enable-background:new 0 0 26.3 21;" xml:space="preserve">
<style type="text/css">
	.st0{fill-rule:evenodd;clip-rule:evenodd;fill:#5F2265;}
</style>
<path class="st0" d="M26.3,2.5c-1,0.4-2,0.7-3.1,0.8c1.1-0.7,2-1.7,2.4-3c-1,0.6-2.2,1.1-3.4,1.3c-1-1-2.4-1.7-3.9-1.7
	c-3,0-5.4,2.4-5.4,5.3c0,0.4,0.1,0.8,0.2,1.2C8.5,6.3,4.5,4.2,1.8,1C1.4,1.8,1.1,2.7,1.1,3.6c0,1.9,1,3.5,2.4,4.4
	C2.6,8,1.8,7.8,1.1,7.4c0,0,0,0,0,0.1c0,0.7,0.1,1.3,0.4,1.9c0.7,1.7,2.2,2.9,4,3.3c-0.5,0.1-0.9,0.2-1.4,0.2c-0.3,0-0.7,0-1-0.1
	c0.7,2.1,2.7,3.6,5,3.7c-1.9,1.4-4.2,2.3-6.7,2.3c-0.4,0-0.9,0-1.3-0.1C2.4,20.1,5.2,21,8.3,21c8.4,0,13.6-5.8,15-11.9
	c0.2-1.1,0.4-2.2,0.4-3.2c0-0.2,0-0.5,0-0.7C24.6,4.5,25.6,3.5,26.3,2.5L26.3,2.5z"/>
</svg>
